<?xml version="1.0" standalone="no"?>
<!DOCTYPE svg PUBLIC "-//W3C//DTD SVG 20010904//EN"
 "http://www.w3.org/TR/2001/REC-SVG-20010904/DTD/svg10.dtd">
<svg version="1.0" xmlns="http://www.w3.org/2000/svg"
 width="141.000000pt" height="142.000000pt" viewBox="0 0 141.000000 142.000000"
 preserveAspectRatio="xMidYMid meet">

<g transform="translate(0.000000,142.000000) scale(0.100000,-0.100000)"
fill="#000000" stroke="none">
<path d="M1034 1183 c-47 -64 -43 -73 5 -13 17 22 28 40 23 40 -4 0 -17 -12
-28 -27z"/>
<path d="M1086 1175 c-3 -8 -1 -15 4 -15 6 0 10 7 10 15 0 8 -2 15 -4 15 -2 0
-6 -7 -10 -15z"/>
<path d="M320 1167 c0 -14 57 -73 64 -66 2 2 -11 21 -30 41 -19 21 -34 32 -34
25z"/>
<path d="M701 1111 c-12 -46 -14 -49 -53 -55 -114 -18 -204 -103 -246 -232
-18 -55 -21 -59 -67 -74 l-49 -16 48 -14 c26 -7 50 -19 53 -27 12 -30 23 -10
23 42 0 200 189 350 379 301 142 -36 241 -159 241 -298 0 -43 3 -44 75 -19
l50 18 -52 13 c-49 13 -52 15 -63 58 -16 65 -45 117 -91 163 -45 45 -129 89
-170 89 -23 0 -28 6 -39 45 -7 25 -16 47 -20 50 -3 2 -12 -18 -19 -44z"/>
<path d="M1071 1143 c-1 -6 -8 -19 -17 -27 -8 -9 -11 -16 -6 -16 15 0 34 28
29 42 -4 9 -6 9 -6 1z"/>
<path d="M260 1109 c0 -5 9 -9 19 -9 11 0 28 -3 38 -7 10 -3 15 -3 12 1 -11
12 -69 25 -69 15z"/>
<path d="M1132 1075 c-12 -25 -18 -45 -13 -45 8 0 44 81 38 87 -2 1 -13 -18
-25 -42z"/>
<path d="M1172 1033 c-24 -14 -41 -27 -39 -30 3 -2 22 6 43 18 48 28 48 28 43
33 -2 2 -23 -7 -47 -21z"/>
<path d="M210 1040 c0 -5 8 -10 19 -10 10 0 34 -2 52 -5 28 -4 30 -4 9 3 -53
18 -80 22 -80 12z"/>
<path d="M1208 974 c-21 -13 -38 -27 -38 -29 0 -7 49 19 75 39 32 25 4 17 -37
-10z"/>
<path d="M635 950 c-12 -13 -31 -20 -56 -20 -21 0 -40 -3 -42 -7 -3 -5 19 -8
48 -9 30 0 52 3 50 7 -5 7 23 34 45 42 10 4 9 6 -6 6 -11 1 -29 -8 -39 -19z"/>
<path d="M155 932 c14 -14 85 -43 85 -33 0 6 -17 14 -85 40 -7 2 -7 0 0 -7z"/>
<path d="M779 923 c-13 -16 -12 -17 4 -4 9 7 17 15 17 17 0 8 -8 3 -21 -13z"/>
<path d="M1238 885 c-21 -19 -34 -35 -30 -35 11 0 88 69 77 69 -5 0 -27 -15
-47 -34z"/>
<path d="M177 869 c-27 -4 -52 -11 -55 -14 -7 -7 100 4 107 11 10 9 -7 10 -52
3z"/>
<path d="M692 845 c-11 -13 -8 -15 18 -15 28 0 30 2 16 15 -18 18 -18 18 -34
0z"/>
<path d="M1243 833 c-18 -2 -33 -8 -33 -12 0 -8 89 5 98 14 6 5 -10 5 -65 -2z"/>
<path d="M662 791 c3 -23 -1 -32 -18 -40 -16 -7 -21 -16 -17 -30 5 -19 13 -21
83 -21 64 0 79 3 84 17 6 16 -16 43 -34 43 -4 0 -5 14 -2 30 l4 30 -52 0 c-52
0 -52 0 -48 -29z"/>
<path d="M1295 790 c-16 -7 -17 -9 -3 -9 9 -1 20 4 23 9 7 11 7 11 -20 0z"/>
<path d="M154 763 c-10 -15 -23 -31 -29 -35 -6 -5 -6 -8 2 -8 14 0 58 59 50
66 -3 3 -14 -7 -23 -23z"/>
<path d="M1234 775 c-10 -8 -14 -14 -9 -14 6 0 19 6 29 14 11 8 15 15 10 15
-6 0 -19 -7 -30 -15z"/>
<path d="M1226 728 c4 -7 95 0 103 8 2 2 -21 3 -52 2 -30 -1 -53 -6 -51 -10z"/>
<path d="M195 675 c-30 -13 -30 -13 26 -14 33 -1 90 -13 142 -30 114 -39 176
-44 212 -17 17 12 13 13 -31 9 -39 -4 -69 3 -148 31 -105 38 -153 43 -201 21z"/>
<path d="M543 680 c-52 -16 -45 -25 16 -22 44 3 77 -4 146 -28 101 -35 166
-40 213 -16 41 21 41 28 1 14 -40 -14 -104 -4 -181 27 -71 30 -148 39 -195 25z"/>
<path d="M885 676 l-30 -14 56 -1 c34 -1 89 -12 140 -30 110 -38 177 -44 213
-18 14 10 7 12 -46 12 -47 0 -81 7 -133 28 -84 35 -158 43 -200 23z"/>
<path d="M576 506 c10 -8 21 -12 24 -10 5 6 -21 24 -34 24 -6 0 -1 -6 10 -14z"/>
<path d="M815 420 c0 -82 3 -100 15 -100 13 0 14 16 12 100 -2 69 -7 100 -15
100 -8 0 -12 -30 -12 -100z"/>
<path d="M896 494 c16 -23 15 -26 -1 -44 -10 -11 -14 -20 -8 -20 17 0 45 38
41 56 -1 9 -13 20 -26 25 -22 8 -22 8 -6 -17z"/>
<path d="M484 486 c-11 -29 2 -51 41 -72 57 -32 67 -43 61 -68 -5 -21 -5 -21
10 -1 24 32 13 58 -32 80 -55 27 -76 45 -70 62 3 7 3 13 0 13 -2 0 -7 -6 -10
-14z"/>
<path d="M910 421 c0 -6 5 -13 10 -16 14 -9 13 -48 -2 -63 -9 -9 -9 -12 -1
-12 14 0 43 39 43 57 0 14 -27 43 -41 43 -5 0 -9 -4 -9 -9z"/>
<path d="M471 358 c-1 -19 34 -42 52 -34 7 2 5 5 -4 5 -9 1 -24 11 -32 24 -13
18 -16 19 -16 5z"/>
</g>
</svg>
